<mxfile host="app.diagrams.net" modified="2024-04-10T16:55:22.266Z" agent="Mozilla/5.0 (Windows NT 10.0; Win64; x64) AppleWebKit/537.36 (KHTML, like Gecko) Chrome/123.0.0.0 Safari/537.36" etag="6Ny8qJFtY9wSDLmxoGAh" version="24.2.3" type="device">
  <diagram name="PÃ¡gina-1" id="Kga35Yd6CwqvO-sBaWRC">
    <mxGraphModel dx="1285" dy="468" grid="1" gridSize="10" guides="1" tooltips="1" connect="1" arrows="1" fold="1" page="1" pageScale="1" pageWidth="827" pageHeight="1169" math="0" shadow="0">
      <root>
        <mxCell id="0" />
        <mxCell id="1" parent="0" />
        <mxCell id="FfWlzn9Tg6nry9M8CXTK-1" value="user" style="shape=umlActor;verticalLabelPosition=bottom;verticalAlign=top;html=1;outlineConnect=0;movable=1;resizable=1;rotatable=1;deletable=1;editable=1;locked=0;connectable=1;" parent="1" vertex="1">
          <mxGeometry x="440" y="40" width="40" height="40" as="geometry" />
        </mxCell>
        <mxCell id="FfWlzn9Tg6nry9M8CXTK-6" value="&lt;span style=&quot;color: rgb(0, 0, 0); font-family: Helvetica; font-size: 12px; font-style: normal; font-variant-ligatures: normal; font-variant-caps: normal; font-weight: 400; letter-spacing: normal; orphans: 2; text-align: center; text-indent: 0px; text-transform: none; widows: 2; word-spacing: 0px; -webkit-text-stroke-width: 0px; white-space: normal; background-color: rgb(251, 251, 251); text-decoration-thickness: initial; text-decoration-style: initial; text-decoration-color: initial; display: inline !important; float: none;&quot;&gt;car(vehicle)&lt;/span&gt;&lt;div style=&quot;forced-color-adjust: none; color: rgb(0, 0, 0); font-family: Helvetica; font-size: 12px; font-style: normal; font-variant-ligatures: normal; font-variant-caps: normal; font-weight: 400; letter-spacing: normal; orphans: 2; text-align: center; text-indent: 0px; text-transform: none; widows: 2; word-spacing: 0px; -webkit-text-stroke-width: 0px; white-space: normal; background-color: rgb(251, 251, 251); text-decoration-thickness: initial; text-decoration-style: initial; text-decoration-color: initial;&quot;&gt;Truck&lt;span style=&quot;forced-color-adjust: none; background-color: initial;&quot;&gt;(vehicle)&lt;/span&gt;&lt;/div&gt;&lt;div style=&quot;forced-color-adjust: none; color: rgb(0, 0, 0); font-family: Helvetica; font-size: 12px; font-style: normal; font-variant-ligatures: normal; font-variant-caps: normal; font-weight: 400; letter-spacing: normal; orphans: 2; text-align: center; text-indent: 0px; text-transform: none; widows: 2; word-spacing: 0px; -webkit-text-stroke-width: 0px; white-space: normal; background-color: rgb(251, 251, 251); text-decoration-thickness: initial; text-decoration-style: initial; text-decoration-color: initial;&quot;&gt;Yatch&lt;span style=&quot;forced-color-adjust: none; background-color: initial;&quot;&gt;(vehicle)&lt;/span&gt;&lt;/div&gt;&lt;div style=&quot;forced-color-adjust: none; color: rgb(0, 0, 0); font-family: Helvetica; font-size: 12px; font-style: normal; font-variant-ligatures: normal; font-variant-caps: normal; font-weight: 400; letter-spacing: normal; orphans: 2; text-align: center; text-indent: 0px; text-transform: none; widows: 2; word-spacing: 0px; -webkit-text-stroke-width: 0px; white-space: normal; background-color: rgb(251, 251, 251); text-decoration-thickness: initial; text-decoration-style: initial; text-decoration-color: initial;&quot;&gt;Motorcycle&lt;span style=&quot;forced-color-adjust: none; background-color: initial;&quot;&gt;(vehicle)&lt;/span&gt;&lt;/div&gt;" style="shape=process;whiteSpace=wrap;html=1;backgroundOutline=1;movable=1;resizable=1;rotatable=1;deletable=1;editable=1;locked=0;connectable=1;" parent="1" vertex="1">
          <mxGeometry x="545" y="40" width="150" height="60" as="geometry" />
        </mxCell>
        <mxCell id="FfWlzn9Tg6nry9M8CXTK-7" value="" style="endArrow=none;dashed=1;html=1;dashPattern=1 3;strokeWidth=2;rounded=0;" parent="1" edge="1">
          <mxGeometry width="50" height="50" relative="1" as="geometry">
            <mxPoint x="530" y="410" as="sourcePoint" />
            <mxPoint x="530" y="30" as="targetPoint" />
          </mxGeometry>
        </mxCell>
        <mxCell id="FfWlzn9Tg6nry9M8CXTK-8" value="" style="endArrow=none;dashed=1;html=1;dashPattern=1 3;strokeWidth=2;rounded=0;" parent="1" edge="1">
          <mxGeometry width="50" height="50" relative="1" as="geometry">
            <mxPoint x="920" y="410" as="sourcePoint" />
            <mxPoint x="920" y="30" as="targetPoint" />
          </mxGeometry>
        </mxCell>
        <mxCell id="FfWlzn9Tg6nry9M8CXTK-9" value="Vehicle()" style="shape=process;whiteSpace=wrap;html=1;backgroundOutline=1;movable=1;resizable=1;rotatable=1;deletable=1;editable=1;locked=0;connectable=1;" parent="1" vertex="1">
          <mxGeometry x="950" y="40" width="140" height="60" as="geometry" />
        </mxCell>
        <mxCell id="FfWlzn9Tg6nry9M8CXTK-14" style="edgeStyle=none;curved=1;rounded=0;orthogonalLoop=1;jettySize=auto;html=1;fontSize=12;startSize=8;endSize=8;" parent="1" source="FfWlzn9Tg6nry9M8CXTK-13" target="FfWlzn9Tg6nry9M8CXTK-15" edge="1">
          <mxGeometry relative="1" as="geometry">
            <mxPoint x="460" y="260" as="targetPoint" />
          </mxGeometry>
        </mxCell>
        <mxCell id="FfWlzn9Tg6nry9M8CXTK-13" value="enter to the catalog" style="rounded=1;whiteSpace=wrap;html=1;" parent="1" vertex="1">
          <mxGeometry x="400" y="140" width="120" height="60" as="geometry" />
        </mxCell>
        <mxCell id="FfWlzn9Tg6nry9M8CXTK-16" style="edgeStyle=none;curved=1;rounded=0;orthogonalLoop=1;jettySize=auto;html=1;fontSize=12;startSize=8;endSize=8;" parent="1" source="FfWlzn9Tg6nry9M8CXTK-15" target="FfWlzn9Tg6nry9M8CXTK-17" edge="1">
          <mxGeometry relative="1" as="geometry">
            <mxPoint x="580" y="260" as="targetPoint" />
          </mxGeometry>
        </mxCell>
        <mxCell id="FfWlzn9Tg6nry9M8CXTK-15" value="choose create a vehicle" style="rounded=1;whiteSpace=wrap;html=1;" parent="1" vertex="1">
          <mxGeometry x="400" y="240" width="120" height="60" as="geometry" />
        </mxCell>
        <mxCell id="FfWlzn9Tg6nry9M8CXTK-18" style="edgeStyle=none;curved=1;rounded=0;orthogonalLoop=1;jettySize=auto;html=1;fontSize=12;startSize=8;endSize=8;" parent="1" source="FfWlzn9Tg6nry9M8CXTK-17" target="yvM3Og0ebLGnxb515FRh-3" edge="1">
          <mxGeometry relative="1" as="geometry">
            <mxPoint x="720" y="270" as="targetPoint" />
          </mxGeometry>
        </mxCell>
        <mxCell id="FfWlzn9Tg6nry9M8CXTK-17" value="&lt;div&gt;choose a vehicle type&lt;br&gt;&lt;/div&gt;" style="rounded=1;whiteSpace=wrap;html=1;" parent="1" vertex="1">
          <mxGeometry x="560" y="240" width="120" height="60" as="geometry" />
        </mxCell>
        <mxCell id="FfWlzn9Tg6nry9M8CXTK-21" style="edgeStyle=none;curved=1;rounded=0;orthogonalLoop=1;jettySize=auto;html=1;fontSize=12;startSize=8;endSize=8;" parent="1" source="FfWlzn9Tg6nry9M8CXTK-19" target="FfWlzn9Tg6nry9M8CXTK-31" edge="1">
          <mxGeometry relative="1" as="geometry">
            <mxPoint x="920" y="261.66666666666663" as="targetPoint" />
          </mxGeometry>
        </mxCell>
        <mxCell id="FfWlzn9Tg6nry9M8CXTK-19" value="&#xa;&lt;span style=&quot;color: rgb(0, 0, 0); font-family: Helvetica; font-size: 12px; font-style: normal; font-variant-ligatures: normal; font-variant-caps: normal; font-weight: 400; letter-spacing: normal; orphans: 2; text-align: center; text-indent: 0px; text-transform: none; widows: 2; word-spacing: 0px; -webkit-text-stroke-width: 0px; white-space: normal; background-color: rgb(251, 251, 251); text-decoration-thickness: initial; text-decoration-style: initial; text-decoration-color: initial; display: inline !important; float: none;&quot;&gt;create a vehicle with its characteristis&lt;/span&gt;&#xa;&#xa;" style="rounded=1;whiteSpace=wrap;html=1;" parent="1" vertex="1">
          <mxGeometry x="960" y="245" width="120" height="50" as="geometry" />
        </mxCell>
        <mxCell id="FfWlzn9Tg6nry9M8CXTK-20" value="" style="endArrow=none;dashed=1;html=1;dashPattern=1 3;strokeWidth=2;rounded=0;" parent="1" edge="1">
          <mxGeometry width="50" height="50" relative="1" as="geometry">
            <mxPoint x="1110" y="410" as="sourcePoint" />
            <mxPoint x="1110" y="30" as="targetPoint" />
          </mxGeometry>
        </mxCell>
        <mxCell id="FfWlzn9Tg6nry9M8CXTK-23" value="Data base" style="shape=cylinder3;whiteSpace=wrap;html=1;boundedLbl=1;backgroundOutline=1;size=15;" parent="1" vertex="1">
          <mxGeometry x="1160" y="40" width="60" height="60" as="geometry" />
        </mxCell>
        <mxCell id="FfWlzn9Tg6nry9M8CXTK-28" style="edgeStyle=none;curved=1;rounded=0;orthogonalLoop=1;jettySize=auto;html=1;entryX=0.5;entryY=0;entryDx=0;entryDy=0;fontSize=12;startSize=8;endSize=8;" parent="1" source="FfWlzn9Tg6nry9M8CXTK-19" target="FfWlzn9Tg6nry9M8CXTK-19" edge="1">
          <mxGeometry relative="1" as="geometry" />
        </mxCell>
        <mxCell id="FfWlzn9Tg6nry9M8CXTK-31" value="keep vehicle type" style="rounded=1;whiteSpace=wrap;html=1;" parent="1" vertex="1">
          <mxGeometry x="1130" y="239.99666666666664" width="120" height="60" as="geometry" />
        </mxCell>
        <mxCell id="FfWlzn9Tg6nry9M8CXTK-35" value="You create a v&lt;span style=&quot;background-color: initial;&quot;&gt;ehicle&lt;/span&gt;" style="rounded=1;whiteSpace=wrap;html=1;" parent="1" vertex="1">
          <mxGeometry x="400" y="330" width="120" height="60" as="geometry" />
        </mxCell>
        <mxCell id="FfWlzn9Tg6nry9M8CXTK-39" value="" style="edgeStyle=orthogonalEdgeStyle;rounded=0;orthogonalLoop=1;jettySize=auto;html=1;entryX=1;entryY=0.5;entryDx=0;entryDy=0;exitX=0.5;exitY=1;exitDx=0;exitDy=0;" parent="1" source="FfWlzn9Tg6nry9M8CXTK-31" target="FfWlzn9Tg6nry9M8CXTK-35" edge="1">
          <mxGeometry relative="1" as="geometry">
            <mxPoint x="950" y="340" as="sourcePoint" />
            <mxPoint x="650" y="430" as="targetPoint" />
          </mxGeometry>
        </mxCell>
        <mxCell id="yvM3Og0ebLGnxb515FRh-1" value="" style="endArrow=none;dashed=1;html=1;dashPattern=1 3;strokeWidth=2;rounded=0;" edge="1" parent="1">
          <mxGeometry width="50" height="50" relative="1" as="geometry">
            <mxPoint x="720" y="410" as="sourcePoint" />
            <mxPoint x="720" y="30" as="targetPoint" />
          </mxGeometry>
        </mxCell>
        <mxCell id="yvM3Og0ebLGnxb515FRh-2" value="Engine()" style="shape=process;whiteSpace=wrap;html=1;backgroundOutline=1;movable=1;resizable=1;rotatable=1;deletable=1;editable=1;locked=0;connectable=1;" vertex="1" parent="1">
          <mxGeometry x="760" y="40" width="120" height="60" as="geometry" />
        </mxCell>
        <mxCell id="yvM3Og0ebLGnxb515FRh-4" style="edgeStyle=orthogonalEdgeStyle;rounded=0;orthogonalLoop=1;jettySize=auto;html=1;entryX=0;entryY=0.5;entryDx=0;entryDy=0;" edge="1" parent="1" source="yvM3Og0ebLGnxb515FRh-3" target="FfWlzn9Tg6nry9M8CXTK-19">
          <mxGeometry relative="1" as="geometry" />
        </mxCell>
        <mxCell id="yvM3Og0ebLGnxb515FRh-3" value="create a engine" style="rounded=1;whiteSpace=wrap;html=1;" vertex="1" parent="1">
          <mxGeometry x="760" y="240" width="120" height="60" as="geometry" />
        </mxCell>
      </root>
    </mxGraphModel>
  </diagram>
</mxfile>
